<svg width="35" height="37" viewBox="0 0 35 37" fill="none" xmlns="http://www.w3.org/2000/svg">
<path d="M13.0838 30.0833C5.16716 32.4583 5.16716 26.125 2.00049 25.3333M24.1672 34.8333V28.7058C24.2265 27.9508 24.1245 27.1918 23.8679 26.4793C23.6113 25.7668 23.206 25.1171 22.6788 24.5733C27.6505 24.0192 32.8755 22.135 32.8755 13.49C32.8751 11.2794 32.0248 9.15355 30.5005 7.55248C31.2223 5.61845 31.1712 3.4807 30.358 1.58332C30.358 1.58332 28.4897 1.02915 24.1672 3.92665C20.5382 2.94312 16.7128 2.94312 13.0838 3.92665C8.76132 1.02915 6.89299 1.58332 6.89299 1.58332C6.07975 3.4807 6.02872 5.61845 6.75049 7.55248C5.21486 9.16542 4.36365 11.3105 4.37549 13.5375C4.37549 22.1192 9.60049 24.0033 14.5722 24.6208C14.0512 25.1591 13.6495 25.801 13.3931 26.5049C13.1366 27.2087 13.0313 27.9586 13.0838 28.7058V34.8333" stroke="#FAF9F6" stroke-width="4" stroke-linecap="round" stroke-linejoin="round"/>
</svg>
