<svg width="79" height="79" viewBox="0 0 79 79" fill="none" xmlns="http://www.w3.org/2000/svg">
<g filter="url(#filter0_d_25_28)">
<path d="M54.6667 14C55.8159 14 56.9181 14.4565 57.7308 15.2692C58.5435 16.0819 59 17.1841 59 18.3333V48.6667C59 49.8159 58.5435 50.9181 57.7308 51.7308C56.9181 52.5435 55.8159 53 54.6667 53H24.3333C23.1841 53 22.0819 52.5435 21.2692 51.7308C20.4565 50.9181 20 49.8159 20 48.6667V18.3333C20 17.1841 20.4565 16.0819 21.2692 15.2692C22.0819 14.4565 23.1841 14 24.3333 14H54.6667ZM53.5833 47.5833V36.1C53.5833 34.2267 52.8392 32.4301 51.5145 31.1055C50.1899 29.7808 48.3933 29.0367 46.52 29.0367C44.6783 29.0367 42.5333 30.1633 41.4933 31.8533V29.4483H35.4483V47.5833H41.4933V36.9017C41.4933 35.2333 42.8367 33.8683 44.505 33.8683C45.3095 33.8683 46.081 34.1879 46.6499 34.7568C47.2188 35.3256 47.5383 36.0972 47.5383 36.9017V47.5833H53.5833ZM28.4067 26.0467C29.3721 26.0467 30.2979 25.6632 30.9805 24.9805C31.6632 24.2979 32.0467 23.3721 32.0467 22.4067C32.0467 20.3917 30.4217 18.745 28.4067 18.745C27.4355 18.745 26.5042 19.1308 25.8175 19.8175C25.1308 20.5042 24.745 21.4355 24.745 22.4067C24.745 24.4217 26.3917 26.0467 28.4067 26.0467ZM31.4183 47.5833V29.4483H25.4167V47.5833H31.4183Z" fill="#FAF9F6"/>
</g>
<defs>
<filter id="filter0_d_25_28" x="0" y="0" width="79" height="79" filterUnits="userSpaceOnUse" color-interpolation-filters="sRGB">
<feFlood flood-opacity="0" result="BackgroundImageFix"/>
<feColorMatrix in="SourceAlpha" type="matrix" values="0 0 0 0 0 0 0 0 0 0 0 0 0 0 0 0 0 0 127 0" result="hardAlpha"/>
<feOffset dy="6"/>
<feGaussianBlur stdDeviation="10"/>
<feComposite in2="hardAlpha" operator="out"/>
<feColorMatrix type="matrix" values="0 0 0 0 0 0 0 0 0 0 0 0 0 0 0 0 0 0 0.25 0"/>
<feBlend mode="normal" in2="BackgroundImageFix" result="effect1_dropShadow_25_28"/>
<feBlend mode="normal" in="SourceGraphic" in2="effect1_dropShadow_25_28" result="shape"/>
</filter>
</defs>
</svg>
